{"title":"Local Kung-Fu 2013 DVDRiP 480p x246 Esub 340MB - cRcWoRLd","uid":9420148,"size":356218039,"categoryP":"video","categoryS":"movies","magnet":"?xt=urn:btih:0b0167153fbf48ba79a3c913f4957d8951211d43&amp;dn=Local+Kung-Fu+2013+DVDRiP+480p+x246+Esub+340MB+-+cRcWoRLd&amp;tr=udp%3A%2F%2Ftracker.openbittorrent.com%3A80&amp;tr=udp%3A%2F%2Fopen.demonii.com%3A1337&amp;tr=udp%3A%2F%2Ftracker.coppersurfer.tk%3A6969&amp;tr=udp%3A%2F%2Fexodus.desync.com%3A6969","seeders":1,"leechers":1,"uploader":"CRCWORLD","files":1,"time":1388565467,"description":"A comedy assamese movie \n\nIMDB- http://www.imdb.com/title/tt3214218\n\nPlot- Local Kung Fu's plot revolves around Charlie, &quot;an ordinary boy from Guwahati with a delicate stomach&quot;, his girlfriend and a number of madcap characters such as a wannabe local don and a thief who is rumoured to roam naked. \n\nINFO-\n\nGeneral\nComplete name                            : Local Kung-Fu 2013 DVDRiP 480p x246 Esub 340MB - cRcWoRLd.mp4\nFormat                                   : MPEG-4\nFormat profile                           : Base Media / Version 2\nCodec ID                                 : mp42\nFile size                                : 340 MiB\nDuration                                 : 1h 23mn\nOverall bit rate mode                    : Variable\nOverall bit rate                         : 569 Kbps\n\nVideo\nID                                       : 1\nFormat                                   : AVC\nFormat/Info                              : Advanced Video Codec\nFormat profile                           : &lt;a class=&quot;__cf_email__&quot; href=&quot;/cdn-cgi/l/email-protection&quot; data-cfemail=&quot;521a3b353a121e617c62&quot;&gt;[email&amp;#160;protected]&lt;/a&gt;&lt;script cf-hash='f9e31' type=&quot;text/javascript&quot;&gt;\n/* &lt;![CDATA[ */!function(){try{var t=&quot;currentScript&quot;in document?document.currentScript:function(){for(var t=document.getElementsByTagName(&quot;script&quot;),e=t.length;e--;)if(t[e].getAttribute(&quot;cf-hash&quot;))return t[e]}();if(t&amp;&amp;t.previousSibling){var e,r,n,i,c=t.previousSibling,a=c.getAttribute(&quot;data-cfemail&quot;);if(a){for(e=&quot;&quot;,r=parseInt(a.substr(0,2),16),n=2;a.length-n;n+=2)i=parseInt(a.substr(n,2),16)^r,e+=String.fromCharCode(i);e=document.createTextNode(e),c.parentNode.replaceChild(e,c)}}}catch(u){}}();/* ]]&gt; */&lt;/script&gt;\nFormat settings, CABAC                   : No\nFormat settings, ReFrames                : 4 frames\nCodec ID                                 : avc1\nCodec ID/Info                            : Advanced Video Coding\nDuration                                 : 1h 23mn\nBit rate                                 : 500 Kbps\nWidth                                    : 720 pixels\nHeight                                   : 480 pixels\nDisplay aspect ratio                     : 16:9\nOriginal display aspect ratio            : 16:9\nFrame rate mode                          : Variable\nFrame rate                               : 23.976 fps\nMinimum frame rate                       : 16.911 fps\nMaximum frame rate                       : 29.970 fps\nStandard                                 : NTSC\nColor space                              : YUV\nChroma subsampling                       : 4:2:0\nBit depth                                : 8 bits\nScan type                                : Progressive\nBits/(Pixel*Frame)                       : 0.060\nStream size                              : 298 MiB (88%)\nWriting library                          : x264 core\n\nAudio\nID                                       : 2\nFormat                                   : AAC\nFormat/Info                              : Advanced Audio Codec\nFormat profile                           : LC\nCodec ID                                 : 40\nDuration                                 : 1h 23mn\nBit rate mode                            : Variable\nBit rate                                 : 64.2 Kbps\nMaximum bit rate                         : 126 Kbps\nChannel(s)                               : 2 channels\nChannel positions                        : Front: L R\nSampling rate                            : 48.0 KHz\nCompression mode                         : Lossy\nStream size                              : 38.3 MiB (11%)\n\n &lt;a href=&quot;\nhttp://s28.postimg.org/5fm8963b1/vlcsnap_2013_12_31_22h48m46s151.png&quot; rel=&quot;nofollow&quot; target=&quot;_NEW&quot;&gt;\nhttp://s28.postimg.org/5fm8963b1/vlcsnap_2013_12_31_22h48m46s151.png&lt;/a&gt; &lt;a href=&quot;\nhttp://s28.postimg.org/mhf2b9i65/vlcsnap_2013_12_31_22h49m11s241.png&quot; rel=&quot;nofollow&quot; target=&quot;_NEW&quot;&gt;\nhttp://s28.postimg.org/mhf2b9i65/vlcsnap_2013_12_31_22h49m11s241.png&lt;/a&gt; &lt;a href=&quot;\nhttp://s28.postimg.org/q2axuhmpp/vlcsnap_2013_12_31_22h50m01s192.png&quot; rel=&quot;nofollow&quot; target=&quot;_NEW&quot;&gt;\nhttp://s28.postimg.org/q2axuhmpp/vlcsnap_2013_12_31_22h50m01s192.png&lt;/a&gt;\n\nIf You Like This Movie - Please Buy It!\n\nMY RIPS ARE BEST For MP4 Devices like-\nSMARTPHONE,IPAD,IPHONE,ANDROID,PSP etc.\n\nI Recommend VLC player for PC\n\nQuality of this movie is according to the rip size.\nPlz leave your feed-back at my FB page.\nI am alwayes there.","torrent":{"xt":"urn:btih:0b0167153fbf48ba79a3c913f4957d8951211d43","amp;dn":"Local+Kung-Fu+2013+DVDRiP+480p+x246+Esub+340MB+-+cRcWoRLd","amp;tr":["udp%3A%2F%2Ftracker.openbittorrent.com%3A80","udp%3A%2F%2Fopen.demonii.com%3A1337","udp%3A%2F%2Ftracker.coppersurfer.tk%3A6969","udp%3A%2F%2Fexodus.desync.com%3A6969"],"infoHash":"0b0167153fbf48ba79a3c913f4957d8951211d43","infoHashBuffer":{"type":"Buffer","data":[11,1,103,21,63,191,72,186,121,163,201,19,244,149,125,137,81,33,29,67]},"announce":[],"urlList":[]}}